<svg width="32" height="32" viewBox="0 0 32 32" fill="none" xmlns="http://www.w3.org/2000/svg">
  <!-- Dark background -->
  <rect width="32" height="32" fill="#0a0a0a" rx="4"/>
  
  <!-- Radiating energy rays - warm (human) side -->
  <path d="M 16 16 L 4 8" stroke="#F59E0B" stroke-width="1.5" opacity="0.6" stroke-linecap="round"/>
  <path d="M 16 16 L 2 16" stroke="#F59E0B" stroke-width="1.5" opacity="0.5" stroke-linecap="round"/>
  <path d="M 16 16 L 4 24" stroke="#F59E0B" stroke-width="1.5" opacity="0.6" stroke-linecap="round"/>
  <path d="M 16 16 L 8 4" stroke="#F59E0B" stroke-width="1.2" opacity="0.4" stroke-linecap="round"/>
  <path d="M 16 16 L 8 28" stroke="#F59E0B" stroke-width="1.2" opacity="0.4" stroke-linecap="round"/>
  
  <!-- Radiating energy rays - cool (AI) side -->
  <path d="M 16 16 L 28 8" stroke="#06B6D4" stroke-width="1.5" opacity="0.6" stroke-linecap="round"/>
  <path d="M 16 16 L 30 16" stroke="#06B6D4" stroke-width="1.5" opacity="0.5" stroke-linecap="round"/>
  <path d="M 16 16 L 28 24" stroke="#06B6D4" stroke-width="1.5" opacity="0.6" stroke-linecap="round"/>
  <path d="M 16 16 L 24 4" stroke="#06B6D4" stroke-width="1.2" opacity="0.4" stroke-linecap="round"/>
  <path d="M 16 16 L 24 28" stroke="#06B6D4" stroke-width="1.2" opacity="0.4" stroke-linecap="round"/>
  
  <!-- Central glow/energy -->
  <circle cx="16" cy="16" r="8" fill="#F59E0B" opacity="0.15"/>
  <circle cx="16" cy="16" r="8" fill="#06B6D4" opacity="0.15"/>
  <circle cx="16" cy="16" r="5" fill="#ffffff" opacity="0.05"/>
  
  <!-- Bold question mark - the central mystery -->
  <path d="M 14 10 Q 14 8 16 8 Q 18 8 18 10 Q 18 12 16 13.5 L 16 16" 
        stroke="#ffffff" stroke-width="2.5" fill="none" stroke-linecap="round" stroke-linejoin="round"/>
  <circle cx="16" cy="19" r="1.2" fill="#ffffff"/>
  
  <!-- Ascending particles/sparkles -->
  <circle cx="13" cy="7" r="0.8" fill="#F59E0B" opacity="0.8"/>
  <circle cx="19" cy="6" r="0.6" fill="#06B6D4" opacity="0.7"/>
  <circle cx="16" cy="4" r="0.7" fill="#ffffff" opacity="0.9"/>
</svg>
