<svg width="200" height="48" viewBox="0 0 200 48" fill="none" xmlns="http://www.w3.org/2000/svg">
  <!-- Radiating energy rays - warm (human) side -->
  <path d="M 22 24 L 4 12" stroke="#F59E0B" stroke-width="2" opacity="0.5" stroke-linecap="round"/>
  <path d="M 22 24 L 2 24" stroke="#F59E0B" stroke-width="2" opacity="0.4" stroke-linecap="round"/>
  <path d="M 22 24 L 4 36" stroke="#F59E0B" stroke-width="2" opacity="0.5" stroke-linecap="round"/>
  <path d="M 22 24 L 10 6" stroke="#F59E0B" stroke-width="1.5" opacity="0.35" stroke-linecap="round"/>
  <path d="M 22 24 L 10 42" stroke="#F59E0B" stroke-width="1.5" opacity="0.35" stroke-linecap="round"/>
  <path d="M 22 24 L 14 2" stroke="#F59E0B" stroke-width="1.2" opacity="0.25" stroke-linecap="round"/>
  
  <!-- Radiating energy rays - cool (AI) side -->
  <path d="M 22 24 L 40 12" stroke="#06B6D4" stroke-width="2" opacity="0.5" stroke-linecap="round"/>
  <path d="M 22 24 L 42 24" stroke="#06B6D4" stroke-width="2" opacity="0.4" stroke-linecap="round"/>
  <path d="M 22 24 L 40 36" stroke="#06B6D4" stroke-width="2" opacity="0.5" stroke-linecap="round"/>
  <path d="M 22 24 L 34 6" stroke="#06B6D4" stroke-width="1.5" opacity="0.35" stroke-linecap="round"/>
  <path d="M 22 24 L 34 42" stroke="#06B6D4" stroke-width="1.5" opacity="0.35" stroke-linecap="round"/>
  <path d="M 22 24 L 30 2" stroke="#06B6D4" stroke-width="1.2" opacity="0.25" stroke-linecap="round"/>
  
  <!-- Central energy glow -->
  <circle cx="22" cy="24" r="12" fill="#F59E0B" opacity="0.12"/>
  <circle cx="22" cy="24" r="12" fill="#06B6D4" opacity="0.12"/>
  <circle cx="22" cy="24" r="8" fill="#ffffff" opacity="0.05"/>
  
  <!-- Bold central question mark -->
  <path d="M 19 16 Q 19 12 22 12 Q 25 12 25 15 Q 25 18 22 20 L 22 24" 
        stroke="#ffffff" stroke-width="3.5" fill="none" stroke-linecap="round" stroke-linejoin="round"/>
  <circle cx="22" cy="28.5" r="1.8" fill="#ffffff"/>
  
  <!-- Ascending particles - more dramatic for logo -->
  <circle cx="18" cy="9" r="1.2" fill="#F59E0B" opacity="0.8"/>
  <circle cx="26" cy="8" r="1" fill="#06B6D4" opacity="0.7"/>
  <circle cx="22" cy="5" r="1.3" fill="#ffffff" opacity="0.9"/>
  <circle cx="16" cy="4" r="0.8" fill="#F59E0B" opacity="0.6"/>
  <circle cx="28" cy="4" r="0.8" fill="#06B6D4" opacity="0.6"/>
  
  <!-- Additional sparkle effects -->
  <path d="M 20 10 L 20 11.5 M 19.25 10.75 L 20.75 10.75" stroke="#ffffff" stroke-width="0.6" opacity="0.7" stroke-linecap="round"/>
  <path d="M 24 9 L 24 10.2 M 23.4 9.6 L 24.6 9.6" stroke="#ffffff" stroke-width="0.5" opacity="0.6" stroke-linecap="round"/>
  
  <!-- Text: AI-WTF.org -->
  <text x="50" y="20" font-family="system-ui, -apple-system, sans-serif" font-size="16" font-weight="700" fill="#e8e8e8">
    AI-WTF
  </text>
  <text x="50" y="34" font-family="system-ui, -apple-system, sans-serif" font-size="11" font-weight="400" fill="#a0a0a0">
    .org
  </text>
</svg>
